<?xml version="1.0" encoding="UTF-8"?>
<svg width="20px" height="18px" viewBox="0 0 20 18" version="1.1" xmlns="http://www.w3.org/2000/svg" xmlns:xlink="../../../../external.html?link=http://www.w3.org/1999/xlink">
    <!-- Generator: Sketch 62 (91390) - https://sketch.com -->
    <title>K</title>
    <desc>Created with Sketch.</desc>
    <g id="Page-1" stroke="none" stroke-width="1" fill="none" fill-rule="evenodd">
        <g id="pi_strona" transform="translate(-680.000000, -7472.000000)" fill="#fe4030" fill-rule="nonzero">
            <path d="M690.361979,7489.4375 C693.783854,7487.35938 696.283854,7485.20312 697.861979,7482.96875 C699.221354,7481.04688 699.822917,7479.20312 699.666667,7477.4375 C699.604167,7476.65625 699.393229,7475.9375 699.033854,7475.28125 C698.705729,7474.67188 698.260417,7474.14062 697.697917,7473.6875 C697.166667,7473.26562 696.572917,7472.96094 695.916667,7472.77344 C695.260417,7472.58594 694.588542,7472.53125 693.901042,7472.60938 C692.932292,7472.73438 692.135417,7473.04688 691.510417,7473.54688 C690.994792,7473.95312 690.596354,7474.46875 690.315104,7475.09375 C690.033854,7474.46875 689.643229,7473.95312 689.143229,7473.54688 C688.486979,7473.04688 687.674479,7472.73438 686.705729,7472.60938 C686.533854,7472.57812 686.369792,7472.5625 686.213542,7472.5625 C685.557292,7472.54688 684.916667,7472.66016 684.291667,7472.90234 C683.666667,7473.14453 683.111979,7473.5 682.627604,7473.96875 C682.111979,7474.4375 681.721354,7474.97656 681.455729,7475.58594 C681.143229,7476.25781 680.971354,7476.97656 680.940104,7477.74219 C680.877604,7479.47656 681.526042,7481.28125 682.885417,7483.15625 C684.494792,7485.34375 686.955729,7487.4375 690.268229,7489.4375 C690.283854,7489.42188 690.299479,7489.41406 690.315104,7489.41406 C690.346354,7489.41406 690.361979,7489.42188 690.361979,7489.4375 Z" id="K"></path>
        </g>
    </g>
</svg>